<?xml version="1.0" encoding="UTF-8"?>
<svg xmlns="http://www.w3.org/2000/svg" viewBox="0 0 512 512" width="512" height="512"><g id="outline"><path d="M154.687,243.516a50.838,50.838,0,0,0-36.9-9l-6.959.994a50.455,50.455,0,0,0-14.051,4.162l-9.627-19.254a8,8,0,0,0-13.4-1.42l-32,40a8,8,0,0,0,4.307,12.759l21.723,5.431c-.1.545-.191,1.091-.269,1.641a51.335,51.335,0,0,0,18.211,46.733A259.125,259.125,0,0,0,192,377.494V392a64.352,64.352,0,0,0,32,55.414V488a8,8,0,0,0,8,8h48a8,8,0,0,0,8-8V447.414A64.352,64.352,0,0,0,320,392V377.494a259.125,259.125,0,0,0,106.275-51.928,51.335,51.335,0,0,0,18.211-46.733c-.078-.55-.173-1.1-.269-1.641l21.723-5.431A8,8,0,0,0,470.247,259l-32-40a8,8,0,0,0-13.4,1.42l-9.627,19.254a50.455,50.455,0,0,0-14.051-4.162l-6.959-.994a50.829,50.829,0,0,0-36.9,9A152.918,152.918,0,0,1,320,263.081V241.494a259.125,259.125,0,0,0,106.275-51.928,51.335,51.335,0,0,0,18.211-46.733c-.078-.55-.173-1.1-.269-1.641l21.723-5.431A8,8,0,0,0,470.247,123l-32-40a8,8,0,0,0-13.4,1.42l-9.627,19.254a50.465,50.465,0,0,0-14.051-4.162l-6.959-.994a50.833,50.833,0,0,0-36.9,9A152.062,152.062,0,0,1,268.431,136H243.569a152.062,152.062,0,0,1-88.882-28.484,50.838,50.838,0,0,0-36.9-9l-6.959.994a50.455,50.455,0,0,0-14.051,4.162L87.155,84.422A8,8,0,0,0,73.753,83l-32,40a8,8,0,0,0,4.307,12.759l21.723,5.431c-.1.545-.191,1.091-.269,1.641a51.335,51.335,0,0,0,18.211,46.733A259.125,259.125,0,0,0,192,241.494v21.587A152.918,152.918,0,0,1,154.687,243.516Zm-81.623,18.5-11.029-2.757,16.4-20.5,4.951,9.9A51.6,51.6,0,0,0,73.064,262.02ZM304,392a48.244,48.244,0,0,1-27.434,43.364A8,8,0,0,0,272,442.59V480H240V442.59a8,8,0,0,0-4.566-7.226A48.244,48.244,0,0,1,208,392V380.623q7.956,1.3,16,2.1V392a32,32,0,0,0,64,0v-9.277q8.04-.8,16-2.1Zm-64,0v-8.186c3.136.115,6.276.186,9.422.186h13.156c3.146,0,6.286-.071,9.422-.186V392a16,16,0,0,1-32,0ZM433.563,238.761l16.4,20.5-11.029,2.757a51.6,51.6,0,0,0-10.324-13.355Zm0-136,16.4,20.5-11.029,2.757a51.61,51.61,0,0,0-10.325-13.354ZM73.064,126.02l-11.029-2.757,16.4-20.5,4.951,9.9A51.6,51.6,0,0,0,73.064,126.02Zm22.792,51.163a35.054,35.054,0,0,1,17.241-61.83l6.959-.994a34.9,34.9,0,0,1,25.33,6.177,171.062,171.062,0,0,0,14.878,9.5,8.043,8.043,0,0,0,.581,1.539l16,32a8,8,0,1,0,14.31-7.156l-7.723-15.447a167.067,167.067,0,0,0,25.98,7.565l15.932,23.9a8,8,0,0,0,13.312-8.876l-8.035-12.052q6.435.486,12.948.49h17.117l21.657,21.657a8,8,0,1,0,11.314-11.314L282.713,151.4a168.257,168.257,0,0,0,28.5-4.867l19.125,19.125a8,8,0,1,0,11.314-11.314l-13.292-13.292a169.143,169.143,0,0,0,38.249-20.515,34.908,34.908,0,0,1,25.33-6.177l6.959.994a35.054,35.054,0,0,1,17.241,61.83A243.161,243.161,0,0,1,262.578,232H249.422A243.161,243.161,0,0,1,95.856,177.183ZM304,244.623v23.22a152.306,152.306,0,0,1-16,2.911V246.723Q296.04,245.922,304,244.623Zm-32,3.191v24.141c-1.188.027-30.812.027-32,0V247.814c3.136.115,6.276.186,9.422.186h13.156C265.724,248,268.864,247.929,272,247.814Zm-48-1.091v24.031a152.306,152.306,0,0,1-16-2.911v-23.22Q215.956,245.921,224,246.723Zm-23.218,35.809a168.257,168.257,0,0,0,28.5,4.867l-10.944,10.944a8,8,0,0,0,11.314,11.314L251.314,288h17.117q6.51,0,12.948-.49l-8.035,12.052a8,8,0,1,0,13.312,8.876l15.932-23.9a167.067,167.067,0,0,0,25.98-7.565l-7.723,15.447a8,8,0,1,0,14.31,7.156l16-32a8.043,8.043,0,0,0,.581-1.539,171.062,171.062,0,0,0,14.878-9.5,34.908,34.908,0,0,1,25.33-6.177l6.959.994a35.054,35.054,0,0,1,17.241,61.83,243.145,243.145,0,0,1-104.878,49.838,7.968,7.968,0,0,0-1.763.366A241.659,241.659,0,0,1,262.578,368H249.422A243.161,243.161,0,0,1,95.856,313.183a35.054,35.054,0,0,1,17.241-61.83l6.959-.994a35.319,35.319,0,0,1,5-.357,34.879,34.879,0,0,1,20.326,6.534,169.143,169.143,0,0,0,38.249,20.515l-13.292,13.292a8,8,0,0,0,11.314,11.314Z"/><path d="M320.447,210.49a7.994,7.994,0,0,0,2.16-.3q2.755-.771,5.49-1.6a8,8,0,1,0-4.655-15.308q-2.565.78-5.147,1.5a8,8,0,0,0,2.152,15.706Z"/><path d="M352.018,199.331a7.984,7.984,0,0,0,3.161-.654,259.7,259.7,0,0,0,24.286-12.007,8,8,0,0,0-7.832-13.952,243.21,243.21,0,0,1-22.784,11.263,8,8,0,0,0,3.169,15.35Z"/><path d="M320.447,348.8a8.032,8.032,0,0,0,2.16-.3q2.755-.772,5.49-1.6a8,8,0,0,0-4.655-15.309q-2.565.78-5.147,1.5a8,8,0,0,0,2.152,15.706Z"/><path d="M352.018,337.637a7.985,7.985,0,0,0,3.161-.655,259.689,259.689,0,0,0,24.286-12.006,8,8,0,0,0-7.832-13.952,243.456,243.456,0,0,1-22.784,11.263,8,8,0,0,0,3.169,15.35Z"/><path d="M243,112a8,8,0,0,0,16,0c0-4.866,1.358-6.859,3.61-10.161,2.7-3.955,6.39-9.372,6.39-19.173s-3.693-15.219-6.39-19.174c-2.252-3.3-3.61-5.295-3.61-10.161s1.358-6.857,3.609-10.159C265.307,39.217,269,33.8,269,24a8,8,0,0,0-16,0c0,4.865-1.358,6.857-3.609,10.159C246.693,38.114,243,43.53,243,53.331s3.693,15.218,6.39,19.173c2.252,3.3,3.61,5.3,3.61,10.162s-1.358,6.858-3.609,10.16C246.693,96.781,243,102.2,243,112Z"/><path d="M293,82.666c0,4.866-1.358,6.858-3.61,10.161a36.558,36.558,0,0,0-4.618,8.432,8,8,0,1,0,15.032,5.482,22.481,22.481,0,0,1,2.805-4.9c2.7-3.956,6.391-9.373,6.391-19.174s-3.693-15.219-6.39-19.174c-2.252-3.3-3.61-5.295-3.61-10.161s1.358-6.857,3.609-10.159C305.307,39.217,309,33.8,309,24a8,8,0,0,0-16,0c0,4.865-1.358,6.857-3.609,10.159C286.693,38.114,283,43.53,283,53.331s3.693,15.218,6.39,19.173C291.642,75.807,293,77.8,293,82.666Z"/><path d="M213,82.666c0,4.866-1.358,6.858-3.61,10.161a36.558,36.558,0,0,0-4.618,8.432,8,8,0,1,0,15.032,5.482,22.481,22.481,0,0,1,2.805-4.9c2.7-3.956,6.391-9.373,6.391-19.174s-3.693-15.219-6.39-19.174c-2.252-3.3-3.61-5.295-3.61-10.161s1.358-6.857,3.609-10.159C225.307,39.217,229,33.8,229,24a8,8,0,0,0-16,0c0,4.865-1.358,6.857-3.609,10.159C206.693,38.114,203,43.53,203,53.331s3.693,15.218,6.39,19.173C211.642,75.807,213,77.8,213,82.666Z"/></g></svg>
