<svg id="Capa_1" enable-background="new 0 0 512 512" height="512" viewBox="0 0 512 512" width="512" xmlns="http://www.w3.org/2000/svg"><path d="m101.676 395.271c18.908 10.709 38.425 16.016 57.259 16.016 23.634 0 46.191-8.359 65.102-24.891 43.682-38.174 91.689-51.711 151.088-42.612 12.817 1.972 25.057 4.859 38.016 7.916 5.517 1.302 11.221 2.647 16.958 3.91 13.574 2.954 23.604 1.37 30.661-4.843 10.43-9.179 10.459-25.392 9.318-38.49 0-.003-.001-.005-.001-.008-3.019-34.365-26.239-60.798-45.192-76.926-23.988-20.378-53.216-35.779-86.871-45.773-46.876-13.92-101.29-16.619-153.212-7.596-15.318 2.65-31.013 6.64-45.386 11.535-31.341 10.659-56.796 25.661-73.613 43.384-22.077 23.267-30.034 50.879-23.647 82.075 6.197 30.185 28.448 58.71 59.52 76.303zm-21.263-144.515c14.578-15.365 37.224-28.567 65.491-38.18 13.396-4.563 28.034-8.282 42.337-10.757 19.05-3.31 38.431-4.951 57.599-4.951 30.064 0 59.595 4.039 86.437 12.011 30.955 9.193 57.724 23.261 79.559 41.809 13.162 11.2 35.622 34.32 38.174 63.337 1.414 16.24-1.319 20.532-2.559 21.624-1.809 1.592-6.574 1.696-13.049.287-5.565-1.225-11.195-2.553-16.639-3.838-12.769-3.012-25.973-6.127-39.583-8.22-64.817-9.933-119.571 5.557-167.399 47.355-27.654 24.174-63.805 26.549-99.18 6.514-25.696-14.55-44.747-38.624-49.716-62.823-5.059-24.71 1.002-45.698 18.528-64.168z"/><path d="m510.502 328.452c-.1-1.584-.192-3.059-.274-4.425 1.54-40.018-17.07-80.085-52.498-112.923-35.889-33.265-85.632-56.931-143.855-68.44-78.797-15.552-198.071-1.868-263.915 54.124-34.166 29.055-50.786 65.811-49.41 109.249 0 6.049-.125 12.359-.257 19.039-.794 40.104-1.694 85.558 22.3 118.736 24.441 33.807 70.37 58.304 119.862 63.933 7.382.839 14.654 1.254 21.802 1.254 38.491-.002 73.154-12.057 99.224-34.846 53.196-46.494 102.578-30.856 146.146-17.058 24.337 7.706 45.356 14.36 63.582 8.377 20.152-6.615 32.577-28.046 36.928-63.699 3.278-26.857 1.454-55.943.365-73.321zm-447.493-116.321c45.45-38.65 119.024-55.418 184.264-55.418 22.367 0 43.764 1.972 62.699 5.71 53.777 10.63 101.388 33.165 134.066 63.452 31.279 28.992 47.631 63.851 46.039 98.178-.441 10.037-2.442 20.155-5.944 30.069-10.911 30.818-30.365 27.573-73.329 17.292-46.241-11.065-109.57-26.219-173.718 29.863-36.496 31.906-84.217 38.581-130.922 18.314-49.56-21.505-83.909-67.292-85.476-113.936-1.246-37.118 12.992-68.583 42.321-93.524zm403.918 234.207c-12.059 3.96-30.204-1.788-51.218-8.443-43.787-13.867-103.755-32.856-165.483 21.095-26.594 23.247-64.058 33.456-105.495 28.744-44.042-5.008-84.588-26.359-105.816-55.722-11.928-16.494-16.463-38-18.027-60.497 17.21 28.261 44.277 52.242 77.258 66.553 19.958 8.66 40.896 13.108 61.353 13.108 5.056 0 10.086-.272 15.06-.82 28.077-3.089 53.575-14.499 75.785-33.915 56.316-49.236 111.46-36.042 155.774-25.438 21.239 5.082 39.58 9.473 55.961 7.157 12.085-1.708 21.803-6.964 29.339-15.915-1.336 28.879-6.985 58.346-24.491 64.093z"/><path d="m116.48 340.464c.949.28 1.907.413 2.849.413 4.351 0 8.365-2.842 9.656-7.228l21.831-74.122c1.572-5.335-1.48-10.934-6.815-12.505-5.329-1.57-10.933 1.48-12.505 6.815l-21.831 74.122c-1.572 5.335 1.48 10.934 6.815 12.505z"/><path d="m187.627 356.058c.943.276 1.895.408 2.831.408 4.358 0 8.376-2.853 9.661-7.246l20.246-69.228c1.561-5.338-1.501-10.931-6.84-12.492-5.334-1.564-10.932 1.501-12.492 6.839l-20.246 69.228c-1.561 5.337 1.5 10.93 6.84 12.491z"/><path d="m288.436 304.546c.968.291 1.947.431 2.908.431 4.328 0 8.327-2.812 9.639-7.169l16.99-56.412c1.604-5.325-1.413-10.942-6.738-12.546-5.327-1.601-10.943 1.413-12.547 6.739l-16.99 56.412c-1.604 5.324 1.413 10.941 6.738 12.545z"/><path d="m368.455 305.338c.969.292 1.947.431 2.909.431 4.327 0 8.327-2.812 9.639-7.168l9.768-32.421c1.605-5.325-1.412-10.943-6.737-12.547-5.327-1.605-10.944 1.412-12.548 6.737l-9.768 32.421c-1.605 5.324 1.412 10.942 6.737 12.547z"/><path d="m223.497 243.752c5.562 0 10.071-4.537 10.071-10.099s-4.509-10.07-10.071-10.07-10.071 4.509-10.071 10.07v.057c0 5.562 4.51 10.042 10.071 10.042z"/><path d="m238.907 69.205c-3.605 4.234-3.097 10.591 1.138 14.196 1.895 1.614 4.215 2.404 6.524 2.404 2.849 0 5.68-1.203 7.672-3.541 11.962-14.047 7.648-25.995 4.498-34.719-1.694-4.691-3.294-9.122-3.173-14.54.08-3.731.138-6.426 6.581-12.744 3.971-3.894 4.034-10.269.141-14.241-3.893-3.971-10.269-4.035-14.242-.14-11.353 11.131-12.458 19.291-12.616 26.684-.205 9.165 2.329 16.183 4.365 21.821 2.823 7.818 3.494 9.676-.888 14.82z"/><path d="m122.531 109.067c-3.605 4.234-3.097 10.591 1.138 14.196 1.895 1.614 4.215 2.404 6.524 2.404 2.849 0 5.68-1.203 7.672-3.541 11.962-14.047 7.648-25.995 4.498-34.719-1.694-4.691-3.294-9.122-3.173-14.54.08-3.726.138-6.418 6.599-12.733 3.977-3.888 4.05-10.264.162-14.241-3.886-3.978-10.263-4.05-14.242-.163-11.389 11.132-12.497 19.297-12.655 26.695-.205 9.165 2.329 16.183 4.365 21.821 2.823 7.819 3.494 9.676-.888 14.821z"/><path d="m355.254 109.067c-3.605 4.234-3.097 10.591 1.138 14.196 1.895 1.614 4.215 2.404 6.524 2.404 2.849 0 5.68-1.203 7.672-3.541 11.962-14.047 7.648-25.995 4.498-34.719-1.694-4.691-3.294-9.122-3.173-14.54.08-3.726.138-6.418 6.599-12.732 3.978-3.888 4.051-10.264.163-14.241-3.887-3.977-10.263-4.051-14.241-.163-11.391 11.132-12.499 19.297-12.657 26.696-.205 9.165 2.329 16.183 4.365 21.821 2.824 7.817 3.495 9.674-.888 14.819z"/></svg>